<svg width="30.000000" height="30.000000" viewBox="0 0 30 30" fill="none" xmlns="http://www.w3.org/2000/svg" xmlns:xlink="http://www.w3.org/1999/xlink">
	<desc>
			Created with Pixso.
	</desc>
	<defs>
		<clipPath id="clip26_1377">
			<rect id="Icons/List" width="30.000000" height="30.000000" fill="white" fill-opacity="0"/>
		</clipPath>
	</defs>
	<g clip-path="url(#clip26_1377)">
		<path id="Vector" d="M4.68 21.56C4.68 21.31 4.78 21.07 4.96 20.89C5.13 20.72 5.37 20.62 5.62 20.62L24.37 20.62C24.62 20.62 24.86 20.72 25.03 20.89C25.21 21.07 25.31 21.31 25.31 21.56C25.31 21.81 25.21 22.04 25.03 22.22C24.86 22.4 24.62 22.5 24.37 22.5L5.62 22.5C5.37 22.5 5.13 22.4 4.96 22.22C4.78 22.04 4.68 21.81 4.68 21.56ZM4.68 14.06C4.68 13.81 4.78 13.57 4.96 13.39C5.13 13.22 5.37 13.12 5.62 13.12L24.37 13.12C24.62 13.12 24.86 13.22 25.03 13.39C25.21 13.57 25.31 13.81 25.31 14.06C25.31 14.31 25.21 14.54 25.03 14.72C24.86 14.9 24.62 15 24.37 15L5.62 15C5.37 15 5.13 14.9 4.96 14.72C4.78 14.54 4.68 14.31 4.68 14.06ZM4.68 6.56C4.68 6.31 4.78 6.07 4.96 5.89C5.13 5.72 5.37 5.62 5.62 5.62L24.37 5.62C24.62 5.62 24.86 5.72 25.03 5.89C25.21 6.07 25.31 6.31 25.31 6.56C25.31 6.81 25.21 7.04 25.03 7.22C24.86 7.4 24.62 7.5 24.37 7.5L5.62 7.5C5.37 7.5 5.13 7.4 4.96 7.22C4.78 7.04 4.68 6.81 4.68 6.56Z" fill="#4C5866" fill-opacity="1.000000" fill-rule="evenodd"/>
	</g>
</svg>
